# xmcd
#
# Track frame offsets: 
#        150
#        17516
#        40377
#
# Disc length: 782 seconds
#
# Revision: 13
# Processed by: cddbd v1.5.2PL0 Copyright (c) Steve Scherf et al.
# Submitted via: ExactAudioCopy v1.0b3
#
DISCID=1a030c03
DTITLE=Everlast - What It's Like
DYEAR=1999
DGENRE=Alternative
TTITLE0=What It's Like (Radio Edit)
TTITLE1=What It's Like (Original Album Version)
TTITLE2=7 Years
EXTD=YEAR: 1999
EXTT0=Radio Edit (3:49)
EXTT1=Album version (5:03)
EXTT2=
PLAYORDER=
